<?xml version="1.0" standalone="no"?>
<!DOCTYPE svg PUBLIC "-//W3C//DTD SVG 20010904//EN"
 "http://www.w3.org/TR/2001/REC-SVG-20010904/DTD/svg10.dtd">
<svg version="1.0" xmlns="http://www.w3.org/2000/svg"
 width="300.000000pt" height="300.000000pt" viewBox="0 0 300.000000 300.000000"
 preserveAspectRatio="xMidYMid meet">
<metadata>
Created by potrace 1.11, written by Peter Selinger 2001-2013
</metadata>
<g transform="translate(0.000000,300.000000) scale(0.100000,-0.100000)"
fill="#000000" stroke="none">
<path d="M2382 2308 c-7 -7 -12 -24 -12 -40 0 -35 32 -55 65 -40 27 13 35 8
28 -19 -12 -46 -39 -49 -413 -49 l-350 0 0 -324 0 -324 34 -20 34 -20 28 39
c34 50 109 105 169 126 65 22 195 14 251 -15 89 -45 139 -133 156 -270 20
-155 -24 -326 -104 -409 -78 -81 -214 -102 -321 -49 -102 49 -140 125 -140
277 l0 97 -46 -33 c-25 -17 -79 -50 -119 -71 -73 -39 -73 -39 -67 -74 10 -55
65 -148 109 -187 95 -81 221 -123 376 -123 281 0 467 123 525 345 18 69 20
182 4 257 -35 168 -174 307 -348 348 -102 24 -251 13 -343 -25 -17 -7 -18 2
-18 99 l0 106 223 0 c249 0 308 9 390 62 90 57 124 165 83 262 -18 43 -33 45
-16 2 28 -74 -1 -169 -69 -227 -65 -57 -98 -63 -381 -69 l-255 -5 -3 -125 c-2
-98 -6 -128 -19 -142 -38 -43 -43 -27 -43 152 l0 170 214 0 c248 0 350 11 423
46 78 38 115 114 93 195 -18 66 -102 113 -138 77z"/>
<path d="M705 2180 c-272 -37 -430 -276 -319 -480 52 -95 127 -134 250 -128
72 3 88 7 126 33 46 32 95 113 84 141 -5 13 -11 11 -40 -11 -72 -55 -151 -52
-212 9 -91 91 -57 253 65 320 141 76 325 25 393 -108 42 -81 34 -224 -17 -326
-40 -79 -101 -136 -272 -251 -182 -123 -279 -213 -337 -308 -40 -66 -79 -156
-91 -208 l-7 -33 491 0 491 0 0 145 c0 159 -9 179 -45 103 -16 -33 -32 -49
-70 -68 -49 -25 -55 -25 -324 -28 l-274 -3 35 48 c45 64 141 135 301 223 181
99 232 134 302 206 100 101 142 215 132 350 -8 113 -57 205 -140 265 -62 45
-72 34 -16 -18 32 -30 63 -73 87 -122 35 -70 37 -80 36 -165 -1 -122 -25 -185
-107 -273 -73 -78 -130 -118 -295 -207 -190 -102 -280 -171 -344 -263 -23 -34
-35 -43 -59 -43 -29 0 -29 0 -15 28 28 52 107 142 163 186 31 25 115 77 187
117 165 91 239 143 305 215 79 86 104 142 109 244 6 118 -19 183 -102 266 -93
93 -191 135 -341 147 -38 3 -97 1 -130 -3z"/>
<path d="M715 2021 c-72 -33 -107 -90 -106 -169 0 -52 31 -106 71 -127 50 -26
55 -16 12 21 -72 61 -76 147 -10 211 42 41 76 53 144 53 99 0 175 -50 220
-145 25 -53 31 -45 13 18 -13 49 -68 110 -123 136 -56 28 -164 28 -221 2z"/>
<path d="M880 1673 c-33 -105 -117 -164 -232 -165 -75 0 -98 8 -161 56 -58 44
-64 45 -35 5 70 -95 238 -118 345 -46 51 34 99 102 109 155 9 45 -12 41 -26
-5z"/>
<path d="M2490 1635 c0 -4 18 -28 41 -53 130 -148 159 -394 68 -588 -28 -58
-118 -157 -175 -190 -152 -89 -363 -104 -555 -39 -40 14 -75 23 -77 20 -10
-10 128 -66 199 -81 92 -20 227 -13 319 15 236 73 374 263 374 516 0 131 -31
230 -101 322 -25 32 -93 89 -93 78z"/>
<path d="M2007 1590 c-59 -15 -108 -45 -157 -94 -31 -33 -41 -49 -33 -57 7 -7
23 3 53 35 24 26 68 58 97 72 47 23 62 26 126 22 87 -6 137 -29 195 -92 23
-25 42 -40 42 -32 0 22 -80 106 -122 127 -45 23 -146 32 -201 19z"/>
<path d="M1876 1224 c-3 -9 -6 -46 -6 -82 0 -73 19 -126 64 -179 30 -36 106
-76 133 -71 12 2 3 11 -29 27 -98 47 -145 137 -136 256 4 49 3 65 -7 65 -7 0
-16 -7 -19 -16z"/>
<path d="M1360 925 l0 -155 -475 0 c-418 0 -474 -2 -469 -15 5 -13 69 -15 490
-15 l484 0 0 170 c0 144 -2 170 -15 170 -13 0 -15 -24 -15 -155z"/>
</g>
</svg>
